<svg width="100" height="100" viewBox="0 0 100 100" fill="none" xmlns="http://www.w3.org/2000/svg">
<path d="M38.5465 34.1455C38.5465 32.9606 39.5071 32 40.692 32C41.8769 32 42.8375 32.9606 42.8375 34.1455V36.8659L45.1934 35.5057C46.2196 34.9132 47.5318 35.2648 48.1242 36.291C48.7167 37.3172 48.3651 38.6293 47.3389 39.2218L44.983 40.582L47.3389 41.9422C48.3651 42.5346 48.7167 43.8468 48.1242 44.873C47.5318 45.8992 46.2196 46.2508 45.1934 45.6583L42.8375 44.2981V47.0185C42.8375 48.2034 41.8769 49.164 40.692 49.164C39.5071 49.164 38.5465 48.2034 38.5465 47.0185V44.2981L36.1906 45.6583C35.1644 46.2507 33.8523 45.8991 33.2598 44.873C32.6673 43.8468 33.0189 42.5346 34.0451 41.9422L36.401 40.582L34.0451 39.2218C33.0189 38.6293 32.6673 37.3172 33.2598 36.291C33.8522 35.2648 35.1644 34.9132 36.1906 35.5057L38.5465 36.8659V34.1455Z" fill="#231815"/>
<path d="M58.1625 39.0495C58.1625 37.8646 59.1231 36.904 60.308 36.904C61.4929 36.904 62.4535 37.8646 62.4535 39.0495V41.7699L64.8094 40.4097C65.8356 39.8172 67.1477 40.1688 67.7402 41.195C68.3327 42.2212 67.9811 43.5333 66.9549 44.1258L64.599 45.486L66.9549 46.8462C67.9811 47.4386 68.3326 48.7508 67.7402 49.777C67.1477 50.8031 65.8356 51.1547 64.8094 50.5623L62.4535 49.2021V51.9225C62.4535 53.1074 61.4929 54.068 60.308 54.068C59.1231 54.068 58.1625 53.1074 58.1625 51.9225V49.2021L55.8066 50.5623C54.7804 51.1547 53.4682 50.8031 52.8758 49.777C52.2833 48.7508 52.6349 47.4386 53.6611 46.8462L56.017 45.486L53.6611 44.1258C52.6349 43.5333 52.2833 42.2212 52.8758 41.195C53.4682 40.1688 54.7804 39.8172 55.8066 40.4097L58.1625 41.7699V39.0495Z" fill="#231815"/>
<path d="M43.4505 52.5355C43.4505 51.3505 44.4111 50.39 45.596 50.39C46.7809 50.39 47.7415 51.3505 47.7415 52.5355V55.2558L50.0974 53.8957C51.1236 53.3032 52.4358 53.6548 53.0282 54.681C53.6207 55.7071 53.2691 57.0193 52.2429 57.6118L49.887 58.972L52.2429 60.3321C53.2691 60.9246 53.6207 62.2368 53.0282 63.263C52.4357 64.2891 51.1236 64.6407 50.0974 64.0483L47.7415 62.6881V65.4084C47.7415 66.5934 46.7809 67.5539 45.596 67.5539C44.4111 67.5539 43.4505 66.5934 43.4505 65.4084V62.6881L41.0946 64.0482C40.0684 64.6407 38.7562 64.2891 38.1638 63.2629C37.5713 62.2368 37.9229 60.9246 38.9491 60.3321L41.305 58.972L38.9491 57.6118C37.9229 57.0193 37.5713 55.7071 38.1638 54.681C38.7562 53.6548 40.0684 53.3032 41.0946 53.8957L43.4505 55.2559V52.5355Z" fill="#231815"/>
</svg>
