<svg width="100" height="100" viewBox="0 0 100 100" fill="none" xmlns="http://www.w3.org/2000/svg">
<path fill-rule="evenodd" clip-rule="evenodd" d="M49.5012 65.001C40.9399 65.001 34 58.0611 34 49.5012C34 40.9399 40.9399 34 49.5012 34C50.4765 34 51.4274 34.1008 52.3523 34.2739C52.1818 35.018 52.0836 35.7892 52.0836 36.5837C52.0836 42.2912 56.7111 46.9174 62.4186 46.9174C63.2131 46.9174 63.9843 46.8192 64.7285 46.6487C64.9003 47.575 65.001 48.5245 65.001 49.5012C65.001 58.0611 58.0611 65.001 49.5012 65.001ZM47.1913 39.4349C42.5974 40.4852 39.1675 44.5882 39.1675 49.5012C39.1675 55.2074 43.7937 59.8349 49.5012 59.8349C54.4129 59.8349 58.5158 56.4049 59.5661 51.811C53.2954 50.6432 48.3579 45.7057 47.1913 39.4349Z" fill="#231815"/>
</svg>
