<svg width="48" height="48" viewBox="0 0 48 48" fill="none" xmlns="http://www.w3.org/2000/svg">
<path d="M8.64706 24.25C5.52827 24.25 3 22.7876 3 19.75C3 17.0968 4.92887 14.8824 7.49533 14.3645C8.37762 11.1319 11.4032 8.75 15 8.75C18.0685 8.75 20.7213 10.4836 21.9822 13" stroke="#231815" stroke-width="2" stroke-linecap="round" stroke-linejoin="round"/>
<path d="M15.5294 35C11.371 35 8 31.7168 8 27.6667C8 24.1291 10.5718 21.1766 13.9938 20.486C15.1702 16.1758 19.2043 13 24 13C29.4215 13 33.8697 17.0587 34.3161 22.2266C37.5268 22.6559 40 25.3383 40 28.5833C40 32.1272 37.0503 35 33.4118 35H15.5294Z" stroke="#231815" stroke-width="2" stroke-linecap="round" stroke-linejoin="round"/>
</svg>
