<svg width="48" height="48" viewBox="0 0 48 48" fill="none" xmlns="http://www.w3.org/2000/svg">
<path d="M33 35H33.4118C37.0503 35 40 32.1272 40 28.5833C40 25.3383 37.5268 22.6559 34.3161 22.2266C33.8697 17.0587 29.4215 13 24 13C19.2043 13 15.1702 16.1758 13.9938 20.486C10.5718 21.1766 8 24.1291 8 27.6667C8 31.5434 11.0886 34.7175 15 34.9822" stroke="#231815" stroke-width="2" stroke-linecap="round" stroke-linejoin="round"/>
<path d="M33 35H33.4118C37.0503 35 40 32.1272 40 28.5833C40 25.3383 37.5268 22.6559 34.3161 22.2266C33.8697 17.0587 29.4215 13 24 13C19.2043 13 15.1702 16.1758 13.9938 20.486C10.5718 21.1766 8 24.1291 8 27.6667C8 31.5434 11.0886 34.7175 15 34.9822" stroke="#231815" stroke-width="2" stroke-linecap="round" stroke-linejoin="round"/>
<path d="M17 30H28.1972C28.6988 30 29.1671 30.2507 29.4453 30.6679V30.6679C29.7812 31.1718 29.7812 31.8282 29.4453 32.3321V32.3321C29.1671 32.7493 28.6988 33 28.1972 33H20.8028C20.3012 33 19.8329 33.2507 19.5547 33.6679V33.6679C19.2188 34.1718 19.2188 34.8282 19.5547 35.3321V35.3321C19.8329 35.7493 20.3012 36 20.8028 36H26.1972C26.6988 36 27.1671 36.2507 27.4453 36.6679V36.6679C27.7812 37.1718 27.7812 37.8282 27.4453 38.3321V38.3321C27.1671 38.7493 26.6988 39 26.1972 39H22.8028C22.3012 39 21.8329 39.2507 21.5547 39.6679V39.6679C21.2188 40.1718 21.2188 40.8282 21.5547 41.3321V41.3321C21.8329 41.7493 22.3012 42 22.8028 42H25" stroke="#231815" stroke-width="2" stroke-linecap="round" stroke-linejoin="round"/>
</svg>
