<svg width="49" height="48" viewBox="0 0 49 48" fill="none" xmlns="http://www.w3.org/2000/svg">
<path d="M37.3682 24C39.6994 22.5422 41.25 19.9522 41.25 17C41.25 12.4437 37.5563 8.75 33 8.75C30.1038 8.75 27.472 10.7423 26 13" stroke="#FCFCFC" stroke-width="2"/>
<g clip-path="url(#clip0)">
<line x1="47" y1="17.25" x2="44.5" y2="17.25" stroke="#FCFCFC" stroke-width="2" stroke-linecap="round" stroke-linejoin="round"/>
</g>
<g clip-path="url(#clip1)">
<line x1="44.9994" y1="24.2165" x2="42.8343" y2="22.9665" stroke="#FCFCFC" stroke-width="2" stroke-linecap="round" stroke-linejoin="round"/>
</g>
<g clip-path="url(#clip2)">
<line x1="27.0335" y1="7.16571" x2="25.7835" y2="5.00064" stroke="#FCFCFC" stroke-width="2" stroke-linecap="round" stroke-linejoin="round"/>
</g>
<g clip-path="url(#clip3)">
<line x1="32.75" y1="5.5" x2="32.75" y2="3" stroke="#FCFCFC" stroke-width="2" stroke-linecap="round" stroke-linejoin="round"/>
</g>
<g clip-path="url(#clip4)">
<line x1="38.5335" y1="6.9157" x2="39.7835" y2="4.75063" stroke="#FCFCFC" stroke-width="2" stroke-linecap="round" stroke-linejoin="round"/>
</g>
<g clip-path="url(#clip5)">
<line x1="42.8343" y1="11.0335" x2="44.9994" y2="9.78349" stroke="#FCFCFC" stroke-width="2" stroke-linecap="round" stroke-linejoin="round"/>
</g>
<path d="M8 25C4.88122 25 3 22.7876 3 19.75C3 17.0968 4.92887 14.8824 7.49533 14.3645C8.37762 11.1319 11.4032 8.75 15 8.75C17.8608 8.75 20.3602 10.2568 21.7073 12.5" stroke="#FCFCFC" stroke-width="2" stroke-linecap="round" stroke-linejoin="round"/>
<path d="M33 35H33.4118C37.0503 35 40 32.1272 40 28.5833C40 25.3383 37.5268 22.6559 34.3161 22.2266C33.8697 17.0587 29.4215 13 24 13C19.2043 13 15.1702 16.1758 13.9938 20.486C10.5718 21.1766 8 24.1291 8 27.6667C8 31.5434 11.0886 34.7175 15 34.9822" stroke="#FCFCFC" stroke-width="2" stroke-linecap="round" stroke-linejoin="round"/>
<path d="M33 35H33.4118C37.0503 35 40 32.1272 40 28.5833C40 25.3383 37.5268 22.6559 34.3161 22.2266C33.8697 17.0587 29.4215 13 24 13C19.2043 13 15.1702 16.1758 13.9938 20.486C10.5718 21.1766 8 24.1291 8 27.6667C8 31.5434 11.0886 34.7175 15 34.9822" stroke="#FCFCFC" stroke-width="2" stroke-linecap="round" stroke-linejoin="round"/>
<path d="M18 37.6962L20.5 33.366M23 36.6962L25.5 32.366M27 38.6962L29.5 34.366" stroke="#FCFCFC" stroke-width="2" stroke-linecap="round" stroke-linejoin="round"/>
<defs>
<clipPath id="clip0">
<rect x="42.75" y="15.5" width="6" height="3" rx="1.5" fill="white"/>
</clipPath>
<clipPath id="clip1">
<rect x="42.1938" y="20.576" width="6" height="3" rx="1.5" transform="rotate(30 42.1938 20.576)" fill="white"/>
</clipPath>
<clipPath id="clip2">
<rect x="26.424" y="2.6101" width="6" height="3" rx="1.5" transform="rotate(60 26.424 2.6101)" fill="white"/>
</clipPath>
<clipPath id="clip3">
<rect x="34.5" y="1.25" width="6" height="3" rx="1.5" transform="rotate(90 34.5 1.25)" fill="white"/>
</clipPath>
<clipPath id="clip4">
<rect x="42.174" y="4.11009" width="6" height="3" rx="1.5" transform="rotate(120 42.174 4.11009)" fill="white"/>
</clipPath>
<clipPath id="clip5">
<rect x="47.3899" y="10.424" width="6" height="3" rx="1.5" transform="rotate(150 47.3899 10.424)" fill="white"/>
</clipPath>
</defs>
</svg>
