<svg width="48" height="48" viewBox="0 0 48 48" fill="none" xmlns="http://www.w3.org/2000/svg">
<path d="M33 35H33.4118C37.0503 35 40 32.1272 40 28.5833C40 25.3383 37.5268 22.6559 34.3161 22.2266C33.8697 17.0587 29.4215 13 24 13C19.2043 13 15.1702 16.1758 13.9938 20.486C10.5718 21.1766 8 24.1291 8 27.6667C8 31.5434 11.0886 34.7175 15 34.9822" stroke="#FCFCFC" stroke-width="2" stroke-linecap="round" stroke-linejoin="round"/>
<path d="M33 35H33.4118C37.0503 35 40 32.1272 40 28.5833C40 25.3383 37.5268 22.6559 34.3161 22.2266C33.8697 17.0587 29.4215 13 24 13C19.2043 13 15.1702 16.1758 13.9938 20.486C10.5718 21.1766 8 24.1291 8 27.6667C8 31.5434 11.0886 34.7175 15 34.9822" stroke="#FCFCFC" stroke-width="2" stroke-linecap="round" stroke-linejoin="round"/>
<path fill-rule="evenodd" clip-rule="evenodd" d="M28.4706 28.9412C27.0087 28.9412 25.8235 30.1263 25.8235 31.5882V31.8289C25.8235 32.3162 26.2186 32.7112 26.7059 32.7112C27.1932 32.7112 27.5883 32.3162 27.5883 31.8289V31.5882C27.5883 31.1009 27.9833 30.7059 28.4706 30.7059C28.9579 30.7059 29.353 31.1009 29.353 31.5882V32.0294C29.353 32.7604 28.7604 33.3529 28.0294 33.3529H27.1471C26.6598 33.3529 26.2647 33.748 26.2647 34.2353C26.2647 34.7226 26.6598 35.1176 27.1471 35.1176H28.0294C29.735 35.1176 31.1177 33.735 31.1177 32.0294V31.5882C31.1177 30.1263 29.9325 28.9412 28.4706 28.9412ZM28.9118 43.0588C27.2062 43.0588 25.8235 41.6762 25.8235 39.9706V39.5294C25.8235 39.0421 26.2186 38.6471 26.7059 38.6471C27.1932 38.6471 27.5883 39.0421 27.5883 39.5294V39.9706C27.5883 40.7016 28.1808 41.2941 28.9118 41.2941C29.6427 41.2941 30.2353 40.7016 30.2353 39.9706V39.5294C30.2353 38.5548 29.4452 37.7647 28.4706 37.7647H24.9412C24.4539 37.7647 24.0588 37.3697 24.0588 36.8824C24.0588 36.395 24.4539 36 24.9412 36H28.4706C30.4198 36 32 37.5802 32 39.5294V39.9706C32 41.6762 30.6174 43.0588 28.9118 43.0588Z" fill="#FCFCFC"/>
<path d="M24.9242 33.5182C24.8879 33.4126 24.7977 33.3364 24.6903 33.3205L21.407 32.8338L22.9133 29.3663C22.9535 29.273 22.9455 29.1647 22.8914 29.0787C22.8376 28.993 22.745 28.9412 22.646 28.9412H18.0608C17.9032 28.9412 17.774 29.0699 17.7684 29.2321L17.5572 35.3943C17.5519 35.5483 17.6601 35.6816 17.808 35.7035L20.0906 36.0423L17.0365 41.7288C16.965 41.8626 17.0013 42.0301 17.1214 42.1197C17.1731 42.1582 17.2328 42.1765 17.2926 42.1765C17.3718 42.1765 17.4505 42.1432 17.5078 42.0789L24.8642 33.8235C24.9375 33.7411 24.9606 33.6237 24.9242 33.5182Z" stroke="#FCFCFC" stroke-width="1.2" stroke-linecap="round" stroke-linejoin="round"/>
</svg>
